<svg xmlns="http://www.w3.org/2000/svg" viewBox="55 55 640 640" height="500" width="500"><defs><linearGradient id="b" x1="375" y1="141.5" x2="375" y2="608.5" gradientUnits="userSpaceOnUse"><stop offset=".07" stop-color="#0046ad"/><stop offset=".41" stop-color="#00a0e1"/><stop offset=".88" stop-color="#0046ad"/></linearGradient><filter id="a"><feDropShadow dx="0" dy="0" stdDeviation="20" flood-color="rgba(0,0,0,.45)"/></filter></defs><path filter="url(#a)" fill="#fff" d="M478.553 125H271.447L125 271.447v207.106L271.447 625h207.106L625 478.553V271.447L478.553 125z"/><path fill="url(#b)" d="M471.719 141.5H278.28L141.5 278.281V471.72L278.281 608.5H471.72L608.5 471.719V278.28L471.719 141.5z"/><path fill="#fff" d="M440.653 216.5H309.347L216.5 309.347v131.306l92.847 92.847h131.306l92.847-92.847V309.347L440.653 216.5z"/><path fill="#0b253b" d="M248.5 423.473h253v5h-253v-5zm121.41 30.915h-5.023v-7.443h5.023v7.443zm9.259-7.443h-5.024v7.443h5.024v-7.443zM304 481.932c.298 10.422 8.113 17.568 21.064 17.568 11.462 0 19.278-6.476 19.278-15.855.075-10.273-8.337-13.027-16.97-14.59-8.188-1.415-13.547-2.531-13.547-7.89 0-4.913 4.093-7.445 9.974-7.445 6.327 0 10.495 3.574 11.164 8.859h8.56c-.372-9.603-7.815-16.079-19.724-16.079-11.091 0-18.534 6.178-18.534 15.26 0 10.347 8.187 13.1 16.822 14.59 8.262 1.488 13.695 2.68 13.695 8.188 0 4.987-4.465 7.741-10.643 7.741-7.295 0-12.058-4.094-12.505-10.198l-8.634-.149zm47.484-5.21c0 14.813 6.997 22.778 20.469 22.778 13.546 0 20.618-7.965 20.618-22.778v-29.777h-8.56v30.223c0 9.677-3.721 14.739-12.058 14.739-8.187 0-11.909-5.062-11.909-14.739v-30.224h-8.56v29.778zm67.944 22.331c16.3 0 26.572-10.644 26.572-26.127s-10.272-25.981-26.572-25.981h-17.715v52.108h17.715zm-9.156-44.662h9.156c11.462 0 17.79 7.369 17.79 18.535s-6.328 18.683-17.79 18.683h-9.156V454.39zM501.5 303.5L467.134 405H441.23l-29.271-86.094v42.522c0 28.796-14.262 44.572-41.611 44.572-27.207 0-41.533-15.776-41.533-44.572V322.37h-29.377V405h-21.706v-82.63H248.5V303.5h102.022v59.084c0 16.064 5.935 24.746 19.826 24.746 14.037 0 19.9-8.682 19.9-24.746V303.5h39.486l24.376 75.162 24.957-75.162H501.5zm-144.3 18.87h9.987V303.5H357.2v18.87zm16.385 0h9.987V303.5h-9.987v18.87z"/></svg>